<?xml version="1.0" standalone="no"?>
<!DOCTYPE svg PUBLIC "-//W3C//DTD SVG 20010904//EN"
 "http://www.w3.org/TR/2001/REC-SVG-20010904/DTD/svg10.dtd">
<svg version="1.0" xmlns="http://www.w3.org/2000/svg"
 width="300.000000pt" height="300.000000pt" viewBox="0 0 300.000000 300.000000"
 preserveAspectRatio="xMidYMid meet">
<metadata>
Created by potrace 1.11, written by Peter Selinger 2001-2013
</metadata>
<g transform="translate(0.000000,300.000000) scale(0.100000,-0.100000)"
fill="#000000" stroke="none">
<path d="M0 1500 l0 -1500 1500 0 1500 0 0 1500 0 1500 -1500 0 -1500 0 0
-1500z m940 534 c0 -78 2 -85 18 -78 31 14 84 8 98 -11 9 -12 14 -45 14 -88 0
-55 4 -73 18 -83 15 -12 10 -13 -38 -13 -48 0 -53 1 -37 13 13 10 17 28 17 74
0 64 -15 92 -49 92 -31 0 -41 -22 -41 -88 0 -50 4 -68 18 -78 15 -12 9 -13
-43 -13 -52 0 -58 1 -42 13 15 12 17 32 17 159 0 104 -4 148 -12 153 -8 5 -2
12 17 20 17 7 33 13 38 14 4 0 7 -39 7 -86z m620 -80 c0 -147 2 -168 18 -180
15 -12 10 -13 -38 -13 -48 0 -53 1 -37 13 15 11 17 32 17 154 0 83 -4 143 -10
147 -5 3 -10 10 -10 14 0 8 37 29 53 30 4 1 7 -74 7 -165z m370 21 c0 -10 10
-15 30 -15 20 0 30 -5 30 -15 0 -10 -10 -15 -30 -15 l-31 0 3 -72 c3 -72 3
-73 31 -73 15 1 27 -5 27 -11 0 -24 -67 -33 -88 -12 -7 7 -12 43 -12 90 0 63
-3 78 -15 78 -21 0 -19 8 13 35 32 28 42 31 42 10z m154 0 c3 -9 18 -15 37
-15 41 0 33 -24 -9 -28 -32 -3 -32 -3 -32 -62 0 -78 6 -90 44 -90 29 -1 30 -1
12 -15 -24 -18 -68 -19 -84 -3 -7 7 -12 42 -12 89 0 64 -3 78 -17 84 -16 6
-14 9 10 21 15 8 27 19 27 24 0 16 17 12 24 -5z m-1242 -28 c11 -19 -8 -30
-30 -18 -75 40 -135 -44 -82 -112 28 -35 56 -42 86 -22 36 24 44 8 11 -21 -62
-54 -157 -10 -157 73 0 51 31 100 72 112 39 12 89 6 100 -12z m419 2 c18 -18
20 -28 14 -75 -8 -66 0 -94 27 -94 17 0 18 -2 8 -15 -14 -17 -51 -20 -66 -5
-6 6 -21 6 -42 -2 -41 -16 -66 -2 -70 39 -3 27 1 32 48 51 48 20 51 23 48 54
-2 26 -8 34 -26 36 -17 3 -25 -2 -29 -16 -6 -25 -46 -38 -41 -14 4 20 64 62
89 62 11 0 28 -9 40 -21z m139 6 c0 -12 5 -11 30 3 22 13 32 14 41 5 17 -17 3
-45 -23 -43 -47 4 -48 3 -48 -68 0 -62 2 -70 23 -80 18 -9 12 -11 -38 -11 -52
0 -58 1 -42 13 13 10 17 28 17 79 0 36 -4 69 -10 72 -16 10 -12 21 13 33 30
15 37 14 37 -3z m403 -25 c41 -45 38 -101 -7 -146 -38 -38 -77 -44 -126 -19
-37 19 -50 43 -50 93 0 101 116 146 183 72z m500 29 c27 -14 37 -28 37 -51 0
-15 -10 -18 -65 -18 -63 0 -65 -1 -65 -26 0 -37 15 -60 50 -74 25 -10 34 -10
55 4 22 14 25 14 25 1 0 -18 -50 -45 -85 -45 -16 0 -38 12 -56 29 -78 78 10
229 104 180z m-1063 -601 c0 -136 3 -164 17 -180 15 -17 14 -18 -38 -18 -47 1
-52 2 -36 14 15 11 17 32 17 154 0 83 -4 143 -10 147 -5 3 -10 10 -10 14 0 8
37 29 53 30 4 1 7 -72 7 -161z m1111 39 c-2 -131 3 -140 54 -87 16 17 23 30
17 30 -7 0 -12 5 -12 10 0 6 20 10 45 10 25 0 45 -4 45 -10 0 -5 -6 -10 -13
-10 -7 0 -28 -13 -46 -28 -41 -34 -36 -48 35 -111 l47 -41 -58 0 c-46 0 -55 3
-47 13 9 10 4 22 -19 50 -17 21 -35 35 -40 32 -15 -10 -10 -57 8 -77 15 -17
14 -18 -38 -18 -47 1 -52 2 -36 14 15 11 17 32 17 154 0 83 -4 143 -10 147 -5
3 -10 10 -10 14 0 9 41 30 54 27 4 -1 8 -54 7 -119z m-978 81 c7 -21 -4 -38
-23 -38 -23 0 -34 16 -26 35 7 18 43 20 49 3z m387 -103 c0 -10 10 -15 30 -15
20 0 30 -5 30 -15 0 -10 -10 -15 -30 -15 l-31 0 3 -72 c3 -72 3 -73 31 -73 15
1 27 -2 27 -5 0 -14 -26 -30 -50 -30 -42 0 -50 17 -50 102 0 63 -3 78 -15 78
-21 0 -19 8 13 35 32 28 42 31 42 10z m-1305 -15 c-8 -13 4 -13 44 1 25 9 36
8 55 -5 22 -14 28 -14 60 -1 47 20 62 19 86 -5 16 -16 20 -33 20 -91 0 -57 4
-75 18 -85 15 -12 10 -13 -38 -13 -48 0 -53 1 -37 13 23 18 24 127 1 150 -18
19 -28 20 -55 6 -27 -15 -28 -136 -1 -156 15 -12 10 -13 -37 -14 -43 0 -52 3
-43 12 7 7 12 40 12 78 0 88 -26 114 -70 70 -26 -26 -28 -114 -3 -142 15 -17
14 -18 -38 -18 -47 1 -52 2 -36 14 13 10 17 28 17 84 0 42 -5 74 -11 78 -8 4
-3 12 12 20 29 16 53 18 44 4z m473 4 c13 -4 22 -14 22 -25 0 -20 -24 -26 -35
-9 -10 16 -57 12 -77 -7 -22 -20 -24 -80 -3 -110 21 -30 62 -38 92 -18 36 24
43 8 10 -21 -63 -54 -160 -9 -160 74 0 82 72 137 151 116z m200 0 c13 -4 22
-14 22 -25 0 -20 -24 -26 -35 -9 -10 16 -57 12 -77 -7 -22 -20 -24 -80 -3
-110 21 -30 62 -38 92 -18 36 24 43 8 10 -21 -63 -54 -160 -9 -160 74 0 82 72
137 151 116z m242 -85 c0 -76 3 -94 18 -105 15 -12 10 -13 -38 -13 -48 0 -53
1 -37 13 13 10 17 28 17 79 0 36 -4 69 -10 72 -5 3 -10 10 -10 14 0 8 37 29
53 30 4 1 7 -40 7 -90z m130 76 c0 -13 5 -12 36 2 32 16 38 16 62 2 25 -14 27
-20 30 -89 2 -51 8 -80 19 -92 15 -17 13 -18 -38 -18 -47 1 -52 2 -36 14 13
10 17 28 17 80 0 60 -2 67 -24 77 -17 8 -29 8 -45 0 -18 -10 -21 -21 -21 -78
0 -51 4 -69 18 -79 15 -12 10 -13 -38 -13 -48 0 -53 1 -37 13 13 10 17 28 17
79 0 36 -4 69 -10 72 -17 10 -11 25 13 35 32 13 37 12 37 -5z m516 -10 c13 -8
27 -31 33 -50 29 -107 -85 -189 -168 -119 -38 32 -48 78 -27 128 26 61 102 81
162 41z m222 19 c13 -4 22 -14 22 -25 0 -20 -24 -26 -35 -9 -3 6 -19 10 -35
10 -34 0 -60 -31 -60 -73 0 -40 14 -62 50 -77 25 -11 34 -10 56 5 36 24 45 8
11 -21 -38 -32 -86 -32 -126 2 -27 22 -31 33 -31 73 0 55 20 87 64 107 35 15
51 16 84 8z m362 -179 c0 -31 -26 -43 -46 -23 -20 20 -7 48 22 48 19 0 24 -5
24 -25z"/>
<path d="M1185 1826 c-25 -18 -13 -49 17 -44 17 2 24 11 26 31 4 30 -12 36
-43 13z"/>
<path d="M1698 1939 c-49 -28 -38 -145 16 -164 24 -8 31 -6 47 14 29 35 26
105 -6 136 -27 28 -32 29 -57 14z"/>
<path d="M2229 1930 l-24 -19 48 -1 c48 0 56 7 35 28 -17 17 -32 15 -59 -8z"/>
<path d="M1913 1324 c-22 -22 -25 -32 -20 -71 6 -57 34 -88 71 -79 52 13 57
139 6 166 -26 14 -28 13 -57 -16z"/>
</g>
</svg>
